<?xml version="1.0" encoding="UTF-8" standalone="no"?>
<!-- Created with Inkscape (http://www.inkscape.org/) -->

<svg
   version="1.1"
   id="svg1"
   width="144"
   height="96"
   viewBox="0 0 144 96"
   sodipodi:docname="ic_module_help.svg"
   inkscape:version="1.4.2 (ebf0e940d0, 2025-05-08)"
   xmlns:inkscape="http://www.inkscape.org/namespaces/inkscape"
   xmlns:sodipodi="http://sodipodi.sourceforge.net/DTD/sodipodi-0.dtd"
   xmlns="http://www.w3.org/2000/svg"
   xmlns:svg="http://www.w3.org/2000/svg">
  <defs
     id="defs1" />
  <sodipodi:namedview
     id="namedview1"
     pagecolor="#ffffff"
     bordercolor="#666666"
     borderopacity="1.0"
     inkscape:showpageshadow="2"
     inkscape:pageopacity="0.0"
     inkscape:pagecheckerboard="0"
     inkscape:deskcolor="#d1d1d1"
     inkscape:zoom="10.125"
     inkscape:cx="72"
     inkscape:cy="48"
     inkscape:window-width="2560"
     inkscape:window-height="1403"
     inkscape:window-x="0"
     inkscape:window-y="0"
     inkscape:window-maximized="1"
     inkscape:current-layer="g1" />
  <g
     inkscape:groupmode="layer"
     inkscape:label="Image"
     id="g1">
    <path
       style="fill:#020202;stroke:none"
       d="M 11.432099,5.8518519 V 25.851852 h 20 V 5.8518519 h -20 m 22,0 V 25.851852 h 20 V 5.8518519 h -20 m 22,0 V 25.851852 h 5 v 1 h -5 l -1,16 h -1 v -16 h -20 v 20 h 20 v 1 h -20 v 20 h 20 v -16 h 1 l 1,16 h 4 v 1 h -4 v 20 h 20 v -5 c 11.81337,3.86001 23.2981,5.44307 35.000001,0.0316 C 147.14455,66.906 135.71506,13.398714 97.432099,8.3100219 c -7.695259,-1.02288 -14.767281,1.177834 -22,3.5418401 V 5.8518619 h -20 m 17,3 V 22.851862 h -14 V 8.8518519 h 14 m 25,51.0000001 h -8 c 0.240479,-10.17482 9.31675,-14.064407 10.813461,-22.991726 0.79733,-4.755756 -4.102691,-9.083431 -8.717117,-7.65543 C 85.569108,31.048904 84.547814,35.7415 77.432099,35.851852 78.858178,19.070068 102.88234,13.133499 108.628,30.8526 112.33943,42.298309 99.784936,49.523349 97.432099,59.851852 m -86,-33 v 20 h 20 v -20 h -20 m 61,3 v 14 h -14 v -14 h 14 m -61,18 v 20 h 20 v -20 h -20 m 17,3 v 14 h -14 v -14 h 14 m 22,0 v 14 h -14 v -14 h 14 m 22,0 v 14 h -14 v -14 h 14 m 25,17 v 8 h -8 v -8 h 8 m -86,1 v 20 h 20 v -20 h -20 m 22,0 v 20 h 20 v -20 h -20 m -5,3 v 14 h -14 v -14 h 14 m 22,0 v 14 h -14 v -14 h 14 m 22,0 v 14 h -14 v -14 z"
       id="path1" />
  </g>
</svg>
